<svg width="57" height="57" viewBox="0 0 57 57" fill="none" xmlns="http://www.w3.org/2000/svg">
<path d="M26.9519 54.72C21.3728 54.72 13.6479 53.4288 8.5281 47.2785C5.55909 43.7112 3.98999 39.1041 3.98999 33.956V20.9372C3.98999 10.9602 12.1582 2.85003 22.1991 2.85003C24.1718 2.85003 26.0475 3.16045 27.7858 3.74133C25.7824 4.5794 23.9727 5.7766 22.4286 7.26206C22.3522 7.26206 22.2759 7.26206 22.1991 7.26206C14.6076 7.26206 8.43213 13.3946 8.43213 20.9372V33.956C8.43213 36.8205 9.04234 40.9709 11.9511 44.4668C15.9696 49.2939 22.3268 50.3076 26.9519 50.3076C32.6083 50.3076 37.3223 48.8642 40.9635 46.0179C43.9357 43.6935 46.0195 40.7935 47.285 37.2018H39.0471V43.5338C39.0471 44.7537 38.053 45.7416 36.8263 45.7416C35.5991 45.7416 34.605 44.7537 34.605 43.5338V34.998C34.605 33.7786 35.5991 32.7898 36.8263 32.7898H50.2187C50.8928 32.7898 51.5298 33.0913 51.9517 33.6146C52.3731 34.1378 52.5333 34.8207 52.3869 35.4769C51.0848 41.2902 48.1653 46.0033 43.7107 49.4855C39.2672 52.9588 33.6287 54.72 26.9519 54.72ZM37.254 23.141C36.1304 23.141 35.2019 22.3118 35.0536 21.2387C35.2045 22.3251 36.154 23.141 37.279 23.141C37.2803 23.141 37.2821 23.141 37.2821 23.141C37.2727 23.141 37.2633 23.141 37.254 23.141ZM39.3494 18.6846C38.8239 13.8424 36.616 9.69644 33.302 6.86299C31.3552 7.05366 29.5455 7.66559 27.9496 8.61008C27.9483 8.61008 27.9469 8.61008 27.9452 8.61008C29.5415 7.66559 31.3539 7.05366 33.3011 6.86299C36.6165 9.69644 38.8293 13.838 39.3547 18.6846H39.3494Z" fill="#FFE600"/>
<path d="M19.3051 46.7401C18.0871 46.7401 17.1 45.7417 17.1 44.5097V20.7505C17.1 15.3528 19.2071 10.5604 22.6272 7.21148C24.1604 5.70964 25.9572 4.49922 27.9465 3.65191C30.0297 2.76426 32.324 2.28005 34.7463 2.28005C44.8167 2.28005 53.01 10.5649 53.01 20.7505C53.01 21.9654 52.0504 22.9562 50.8505 22.9831L37.3933 23.2655C37.3875 23.2655 37.3818 23.2655 37.3756 23.2655C37.3747 23.2655 37.3738 23.2655 37.3725 23.2655C36.2555 23.2655 35.3127 22.4406 35.1629 21.3423C35.1625 21.3378 35.1625 21.3378 35.162 21.3333C35.1509 21.2526 35.1443 21.1674 35.1425 21.0823C35.1421 21.0554 35.1421 21.0329 35.1425 21.006C35.1571 19.809 36.1092 18.8317 37.302 18.8048L39.4269 18.76H39.4282H39.4335L48.4317 18.5717C47.3928 11.8784 41.6515 6.74076 34.7463 6.74076C34.299 6.74076 33.8571 6.76317 33.4227 6.808C31.4893 7.00078 29.6898 7.61946 28.1047 8.57437C24.1333 10.9639 21.5107 15.4739 21.5107 20.7505V44.5097C21.5107 45.7417 20.5231 46.7401 19.3051 46.7401" fill="#FFE600"/>
</svg>
