<svg width="58" height="57" viewBox="0 0 58 57" fill="none" xmlns="http://www.w3.org/2000/svg">
<path d="M27.4248 54.72C21.7478 54.72 13.8874 53.4288 8.67779 47.2785C5.65669 43.7112 4.06006 39.1041 4.06006 33.956V20.9372C4.06006 10.9602 12.3716 2.85003 22.5886 2.85003C24.5959 2.85003 26.5046 3.16045 28.2733 3.74133C26.2348 4.5794 24.3933 5.7766 22.8221 7.26206C22.7444 7.26206 22.6668 7.26206 22.5886 7.26206C14.864 7.26206 8.58013 13.3946 8.58013 20.9372V33.956C8.58013 36.8205 9.20105 40.9709 12.1608 44.4668C16.2498 49.2939 22.7185 50.3076 27.4248 50.3076C33.1804 50.3076 37.9771 48.8642 41.6823 46.0179C44.7065 43.6935 46.8269 40.7935 48.1146 37.2018H39.7322V43.5338C39.7322 44.7537 38.7207 45.7416 37.4724 45.7416C36.2238 45.7416 35.2122 44.7537 35.2122 43.5338V34.998C35.2122 33.7786 36.2238 32.7898 37.4724 32.7898H51.0998C51.7857 32.7898 52.4339 33.0913 52.8632 33.6146C53.292 34.1378 53.4551 34.8207 53.3061 35.4769C51.9811 41.2902 49.0104 46.0033 44.4776 49.4855C39.9562 52.9588 34.2188 54.72 27.4248 54.72ZM37.9076 23.141C36.7643 23.141 35.8195 22.3118 35.6687 21.2387C35.8222 22.3251 36.7884 23.141 37.933 23.141C37.9344 23.141 37.9362 23.141 37.9362 23.141C37.9267 23.141 37.9171 23.141 37.9076 23.141ZM40.0398 18.6846C39.5051 13.8424 37.2585 9.69644 33.8863 6.86299C31.9054 7.05366 30.0639 7.66559 28.44 8.61008C28.4387 8.61008 28.4373 8.61008 28.4355 8.61008C30.0598 7.66559 31.904 7.05366 33.8854 6.86299C37.2589 9.69644 39.5106 13.838 40.0452 18.6846H40.0398Z" fill="#484848"/>
<path d="M19.6438 46.7401C18.4044 46.7401 17.4 45.7417 17.4 44.5097V20.7505C17.4 15.3528 19.5442 10.5604 23.0242 7.21148C24.5843 5.70964 26.4127 4.49922 28.4368 3.65191C30.5566 2.76426 32.8911 2.28005 35.3559 2.28005C45.603 2.28005 53.94 10.5649 53.94 20.7505C53.94 21.9654 52.9636 22.9562 51.7427 22.9831L38.0494 23.2655C38.0435 23.2655 38.0376 23.2655 38.0313 23.2655C38.0304 23.2655 38.0295 23.2655 38.0282 23.2655C36.8916 23.2655 35.9323 22.4406 35.7798 21.3423C35.7794 21.3378 35.7794 21.3378 35.7789 21.3333C35.7677 21.2526 35.7609 21.1674 35.7591 21.0823C35.7587 21.0554 35.7587 21.0329 35.7591 21.006C35.774 19.809 36.7428 18.8317 37.9564 18.8048L40.1186 18.76H40.12H40.1254L49.2815 18.5717C48.2243 11.8784 42.3823 6.74076 35.3559 6.74076C34.9008 6.74076 34.4511 6.76317 34.0091 6.808C32.0418 7.00078 30.2107 7.61946 28.5979 8.57437C24.5567 10.9639 21.8881 15.4739 21.8881 20.7505V44.5097C21.8881 45.7417 20.8832 46.7401 19.6438 46.7401" fill="#484848"/>
</svg>
