<svg width="57" height="57" viewBox="0 0 57 57" fill="none" xmlns="http://www.w3.org/2000/svg">
<path d="M20.6285 13.8496C22.9042 12.4294 25.4952 11.7095 28.3308 11.7095C31.7411 11.7095 34.7182 12.5571 37.1792 14.2269C39.4853 15.7994 41.2398 17.9288 42.4016 20.5631H51.4409C50.0717 15.6338 47.4782 11.6535 43.723 8.72009L43.7222 8.71925C39.7257 5.58818 34.5956 3.99998 28.4749 3.99998C23.7613 3.99998 19.5689 5.0618 16.0146 7.15577C12.4701 9.25963 9.68394 12.2383 7.73676 16.0061C6.31404 18.7443 5.3952 21.8078 5 25.1284H7.08881C10.5896 25.1284 13.7792 23.1135 15.2859 19.9511C16.5489 17.3274 18.3462 15.2755 20.6285 13.8496Z" fill="#FFE600"/>
<path d="M51.4409 37.5414H42.4016C41.2399 40.1757 39.4853 42.3059 37.18 43.876C35.7779 44.8299 34.2053 45.5161 32.4911 45.923C32.3067 45.9667 32.1758 46.1274 32.1758 46.3168V53.8953C36.6646 53.3838 40.5458 51.8681 43.723 49.3844C47.4782 46.4502 50.0717 42.4699 51.4409 37.5414Z" fill="#FFE600"/>
</svg>
