<svg width="58" height="57" viewBox="0 0 58 57" fill="none" xmlns="http://www.w3.org/2000/svg">
<path d="M21.6285 13.8496C23.9042 12.4294 26.4952 11.7095 29.3308 11.7095C32.7411 11.7095 35.7182 12.5571 38.1792 14.2269C40.4853 15.7994 42.2398 17.9288 43.4016 20.5631H52.4409C51.0717 15.6338 48.4782 11.6535 44.723 8.72009L44.7222 8.71925C40.7257 5.58818 35.5956 3.99998 29.4749 3.99998C24.7613 3.99998 20.5689 5.0618 17.0146 7.15577C13.4701 9.25963 10.6839 12.2383 8.73676 16.0061C7.31404 18.7443 6.3952 21.8078 6 25.1284H8.08881C11.5896 25.1284 14.7792 23.1135 16.2859 19.9511C17.5489 17.3274 19.3462 15.2755 21.6285 13.8496Z" fill="#484848"/>
<path d="M52.4409 37.5414H43.4016C42.2399 40.1757 40.4853 42.3059 38.18 43.876C36.7779 44.8299 35.2053 45.5161 33.4911 45.923C33.3067 45.9667 33.1758 46.1274 33.1758 46.3168V53.8953C37.6646 53.3838 41.5458 51.8681 44.723 49.3844C48.4782 46.4502 51.0717 42.4699 52.4409 37.5414Z" fill="#484848"/>
</svg>
